<svg xmlns="http://www.w3.org/2000/svg" xmlns:xlink="http://www.w3.org/1999/xlink" width="500" zoomAndPan="magnify" viewBox="0 0 375 374.999991" height="500" preserveAspectRatio="xMidYMid meet" version="1.0"><defs><clipPath id="ad4a8a1aa5"><path d="M 14.988281 14.988281 L 359.988281 14.988281 L 359.988281 359.988281 L 14.988281 359.988281 Z M 14.988281 14.988281 " clip-rule="nonzero"/></clipPath></defs><g clip-path="url(#ad4a8a1aa5)"><path fill="#000000" d="M 14.988281 14.988281 L 14.988281 310.703125 L 185.015625 310.703125 C 183.042969 305.445312 181.570312 300.023438 180.75 294.273438 L 31.414062 294.273438 L 31.414062 245.148438 L 113.558594 162.84375 L 187.96875 237.414062 C 190.269531 232.15625 193.058594 227.257812 196.34375 222.492188 L 174.394531 200.546875 L 195.703125 179.113281 L 217.070312 200.449219 C 221.34375 196.835938 225.941406 193.742188 230.867188 191.113281 L 195.703125 155.945312 L 162.746094 188.898438 L 113.558594 139.675781 L 31.414062 221.820312 L 31.414062 31.414062 L 294.273438 31.414062 L 294.273438 180.75 C 300.023438 181.570312 305.445312 183.042969 310.703125 185.015625 L 310.703125 14.988281 Z M 228.558594 80.703125 C 228.019531 80.703125 227.484375 80.726562 226.949219 80.78125 C 226.414062 80.832031 225.882812 80.910156 225.351562 81.015625 C 224.824219 81.121094 224.304688 81.253906 223.789062 81.410156 C 223.273438 81.566406 222.769531 81.746094 222.269531 81.953125 C 221.773438 82.15625 221.289062 82.386719 220.8125 82.640625 C 220.339844 82.894531 219.878906 83.171875 219.429688 83.46875 C 218.984375 83.769531 218.550781 84.089844 218.136719 84.429688 C 217.71875 84.773438 217.320312 85.132812 216.941406 85.511719 C 216.5625 85.894531 216.199219 86.292969 215.859375 86.707031 C 215.519531 87.125 215.199219 87.554688 214.898438 88.003906 C 214.601562 88.449219 214.324219 88.910156 214.070312 89.386719 C 213.816406 89.859375 213.585938 90.347656 213.378906 90.84375 C 213.175781 91.339844 212.992188 91.847656 212.835938 92.359375 C 212.679688 92.875 212.550781 93.398438 212.445312 93.925781 C 212.339844 94.453125 212.261719 94.984375 212.207031 95.519531 C 212.15625 96.054688 212.128906 96.589844 212.128906 97.128906 C 212.128906 97.667969 212.15625 98.203125 212.207031 98.738281 C 212.261719 99.277344 212.339844 99.808594 212.445312 100.335938 C 212.550781 100.863281 212.679688 101.382812 212.835938 101.898438 C 212.992188 102.414062 213.175781 102.917969 213.378906 103.417969 C 213.585938 103.914062 213.816406 104.398438 214.070312 104.875 C 214.324219 105.347656 214.601562 105.808594 214.898438 106.257812 C 215.199219 106.703125 215.519531 107.136719 215.859375 107.550781 C 216.199219 107.96875 216.5625 108.367188 216.941406 108.746094 C 217.320312 109.128906 217.71875 109.488281 218.136719 109.828125 C 218.550781 110.171875 218.984375 110.492188 219.429688 110.789062 C 219.878906 111.089844 220.339844 111.363281 220.8125 111.617188 C 221.289062 111.871094 221.773438 112.101562 222.269531 112.308594 C 222.769531 112.515625 223.273438 112.695312 223.789062 112.851562 C 224.304688 113.007812 224.824219 113.136719 225.351562 113.242188 C 225.882812 113.347656 226.414062 113.425781 226.949219 113.480469 C 227.484375 113.53125 228.019531 113.558594 228.558594 113.558594 C 229.097656 113.558594 229.632812 113.53125 230.167969 113.480469 C 230.703125 113.425781 231.234375 113.347656 231.761719 113.242188 C 232.292969 113.136719 232.8125 113.007812 233.328125 112.851562 C 233.84375 112.695312 234.347656 112.515625 234.84375 112.308594 C 235.34375 112.101562 235.828125 111.871094 236.304688 111.617188 C 236.777344 111.363281 237.238281 111.089844 237.6875 110.789062 C 238.132812 110.492188 238.566406 110.171875 238.980469 109.828125 C 239.398438 109.488281 239.792969 109.128906 240.175781 108.746094 C 240.554688 108.367188 240.917969 107.96875 241.257812 107.550781 C 241.597656 107.136719 241.917969 106.703125 242.21875 106.257812 C 242.515625 105.808594 242.792969 105.347656 243.046875 104.875 C 243.300781 104.398438 243.53125 103.914062 243.738281 103.417969 C 243.941406 102.917969 244.125 102.414062 244.28125 101.898438 C 244.4375 101.382812 244.566406 100.863281 244.671875 100.335938 C 244.777344 99.808594 244.855469 99.277344 244.90625 98.738281 C 244.960938 98.203125 244.988281 97.667969 244.988281 97.128906 C 244.988281 96.589844 244.960938 96.054688 244.90625 95.519531 C 244.855469 94.984375 244.777344 94.453125 244.671875 93.925781 C 244.566406 93.398438 244.4375 92.875 244.28125 92.359375 C 244.125 91.847656 243.941406 91.339844 243.738281 90.84375 C 243.53125 90.347656 243.300781 89.859375 243.046875 89.386719 C 242.792969 88.910156 242.515625 88.449219 242.21875 88.003906 C 241.917969 87.554688 241.597656 87.125 241.257812 86.707031 C 240.917969 86.292969 240.554688 85.894531 240.175781 85.511719 C 239.792969 85.132812 239.398438 84.773438 238.980469 84.429688 C 238.566406 84.089844 238.132812 83.769531 237.6875 83.46875 C 237.238281 83.171875 236.777344 82.894531 236.304688 82.640625 C 235.828125 82.386719 235.34375 82.15625 234.84375 81.953125 C 234.347656 81.746094 233.84375 81.566406 233.328125 81.410156 C 232.8125 81.253906 232.292969 81.121094 231.761719 81.015625 C 231.234375 80.910156 230.703125 80.832031 230.167969 80.78125 C 229.632812 80.726562 229.097656 80.703125 228.558594 80.703125 Z M 277.84375 195.703125 C 232.484375 195.703125 195.703125 232.484375 195.703125 277.84375 C 195.703125 323.203125 232.484375 359.988281 277.84375 359.988281 C 323.203125 359.988281 359.988281 323.203125 359.988281 277.84375 C 359.988281 232.484375 323.203125 195.703125 277.84375 195.703125 Z M 269.628906 228.558594 L 286.058594 228.558594 L 286.058594 269.628906 L 327.128906 269.628906 L 327.128906 286.058594 L 286.058594 286.058594 L 286.058594 327.128906 L 269.628906 327.128906 L 269.628906 286.058594 L 228.558594 286.058594 L 228.558594 269.628906 L 269.628906 269.628906 Z M 269.628906 228.558594 " fill-opacity="1" fill-rule="nonzero"/></g></svg>